<svg width="17" height="17" viewBox="0 0 17 17" fill="none" xmlns="http://www.w3.org/2000/svg">
<g id="Vector">
<path id="Vector-47" d="M0.46967 15.4697C0.176777 15.7626 0.176777 16.2374 0.46967 16.5303C0.762563 16.8232 1.23744 16.8232 1.53033 16.5303L0.46967 15.4697ZM9.03033 9.03033C9.32322 8.73744 9.32322 8.26256 9.03033 7.96967C8.73744 7.67678 8.26256 7.67678 7.96967 7.96967L9.03033 9.03033ZM7.96967 7.96967C7.67678 8.26256 7.67678 8.73744 7.96967 9.03033C8.26256 9.32322 8.73744 9.32322 9.03033 9.03033L7.96967 7.96967ZM16.5303 1.53033C16.8232 1.23744 16.8232 0.762563 16.5303 0.46967C16.2374 0.176777 15.7626 0.176777 15.4697 0.46967L16.5303 1.53033ZM9.03033 7.96967C8.73744 7.67678 8.26256 7.67678 7.96967 7.96967C7.67678 8.26256 7.67678 8.73744 7.96967 9.03033L9.03033 7.96967ZM15.4697 16.5303C15.7626 16.8232 16.2374 16.8232 16.5303 16.5303C16.8232 16.2374 16.8232 15.7626 16.5303 15.4697L15.4697 16.5303ZM7.96967 9.03033C8.26256 9.32322 8.73744 9.32322 9.03033 9.03033C9.32322 8.73744 9.32322 8.26256 9.03033 7.96967L7.96967 9.03033ZM1.53033 0.46967C1.23744 0.176777 0.762563 0.176777 0.46967 0.46967C0.176777 0.762563 0.176777 1.23744 0.46967 1.53033L1.53033 0.46967ZM1.53033 16.5303L9.03033 9.03033L7.96967 7.96967L0.46967 15.4697L1.53033 16.5303ZM9.03033 9.03033L16.5303 1.53033L15.4697 0.46967L7.96967 7.96967L9.03033 9.03033ZM7.96967 9.03033L15.4697 16.5303L16.5303 15.4697L9.03033 7.96967L7.96967 9.03033ZM9.03033 7.96967L1.53033 0.46967L0.46967 1.53033L7.96967 9.03033L9.03033 7.96967Z" fill="#FF0000"/>
</g>
</svg>
